<svg width="286" height="58" viewBox="0 0 286 58" fill="none" xmlns="http://www.w3.org/2000/svg">
<mask id="mask0" mask-type="alpha" maskUnits="userSpaceOnUse" x="0" y="0" width="286" height="58">
<path fill-rule="evenodd" clip-rule="evenodd" d="M235.552 10C235.552 11.6569 236.895 13 238.552 13C240.209 13 241.552 11.6569 241.552 10V3C241.552 1.34315 240.209 0 238.552 0C236.895 0 235.552 1.34315 235.552 3V10ZM66.672 8.688C67.008 7.728 67.536 7.008 68.256 6.528C69.024 6.048 69.864 5.808 70.776 5.808C71.928 5.808 72.912 6.168 73.728 6.888C74.592 7.608 75.024 8.568 75.024 9.768C75.024 10.2 74.904 10.824 74.664 11.64L59.184 54.48C58.8 55.44 58.152 56.184 57.24 56.712C56.376 57.24 55.416 57.504 54.36 57.504C53.304 57.504 52.32 57.24 51.408 56.712C50.496 56.184 49.872 55.44 49.536 54.48L37.584 20.568L25.416 54.48C25.032 55.44 24.384 56.184 23.472 56.712C22.608 57.24 21.648 57.504 20.592 57.504C19.536 57.504 18.552 57.24 17.64 56.712C16.776 56.184 16.176 55.44 15.84 54.48L0.36 11.64C0.12 10.92 0 10.296 0 9.768C0 8.568 0.432 7.608 1.296 6.888C2.208 6.168 3.264 5.808 4.464 5.808C5.424 5.808 6.288 6.048 7.056 6.528C7.824 7.008 8.376 7.728 8.712 8.688L20.952 43.896L33.552 8.904C33.888 7.944 34.44 7.2 35.208 6.672C35.976 6.096 36.816 5.808 37.728 5.808C38.64 5.808 39.48 6.096 40.248 6.672C41.064 7.2 41.64 7.968 41.976 8.976L54.216 44.328L66.672 8.688ZM105.893 47.352C106.709 47.352 107.357 47.664 107.837 48.288C108.365 48.912 108.629 49.752 108.629 50.808C108.629 52.296 107.741 53.544 105.965 54.552C104.333 55.464 102.485 56.208 100.421 56.784C98.3569 57.312 96.3889 57.576 94.5169 57.576C88.8529 57.576 84.3649 55.944 81.0529 52.68C78.9473 50.605 77.5111 48.045 76.7441 45H85.5518V44.4237C86.0357 46.0671 86.7681 47.3792 87.7489 48.36C89.3329 49.896 91.6369 50.664 94.6609 50.664C96.1969 50.664 97.5409 50.472 98.6929 50.088C99.8929 49.704 101.237 49.176 102.725 48.504C104.165 47.736 105.221 47.352 105.893 47.352ZM85.5518 41.016H106.181C108.005 41.016 108.917 39.984 108.917 37.92C108.917 34.464 108.269 31.464 106.973 28.92C105.677 26.376 103.853 24.408 101.501 23.016C99.1489 21.624 96.3889 20.928 93.2209 20.928C89.9089 20.928 86.9329 21.696 84.2929 23.232C81.7009 24.768 79.6849 26.928 78.2449 29.712C76.8049 32.496 76.0849 35.688 76.0849 39.288C76.0849 39.8714 76.1024 40.4421 76.1376 41H85.5518V41.016ZM93.4369 27.264C90.9889 27.264 89.0209 28.032 87.5329 29.568C86.0929 31.104 85.2289 33.312 84.9409 36.192H101.213C101.117 33.264 100.397 31.056 99.0529 29.568C97.7089 28.032 95.8369 27.264 93.4369 27.264ZM142.415 24.6C140.063 22.152 136.439 20.928 131.543 20.928C129.287 20.928 126.983 21.192 124.631 21.72C122.327 22.248 120.335 22.968 118.655 23.88C117.695 24.408 116.999 24.984 116.567 25.608C116.183 26.184 115.991 26.88 115.991 27.696C115.991 28.704 116.255 29.52 116.783 30.144C117.359 30.768 118.079 31.08 118.943 31.08C119.519 31.08 120.431 30.768 121.679 30.144C123.647 29.376 125.351 28.8 126.791 28.416C128.231 27.984 129.647 27.768 131.039 27.768C133.295 27.768 134.927 28.32 135.935 29.424C136.943 30.48 137.447 32.184 137.447 34.536V36.192H135.647C130.415 36.192 126.311 36.528 123.335 37.2C120.359 37.872 118.199 38.952 116.855 40.44C115.559 41.928 114.911 43.968 114.911 46.56C114.911 48.624 115.463 50.496 116.567 52.176C117.671 53.856 119.183 55.176 121.103 56.136C123.023 57.096 125.159 57.576 127.511 57.576C129.815 57.576 131.831 57.048 133.559 55.992C135.335 54.936 136.631 53.472 137.447 51.6V53.184C137.447 54.432 137.831 55.44 138.599 56.208C139.415 56.976 140.447 57.36 141.695 57.36C143.039 57.36 144.095 57 144.863 56.28C145.631 55.512 146.015 54.48 146.015 53.184V35.616C146.015 30.672 144.815 27 142.415 24.6ZM135.143 48.72C133.655 50.304 131.711 51.096 129.311 51.096C127.727 51.096 126.383 50.616 125.279 49.656C124.223 48.648 123.695 47.376 123.695 45.84C123.695 44.592 124.079 43.608 124.847 42.888C125.615 42.168 126.887 41.664 128.663 41.376C130.439 41.088 132.935 40.944 136.151 40.944H137.447V42.456C137.447 45 136.679 47.088 135.143 48.72ZM173.45 50.736C175.85 50.88 177.05 51.96 177.05 53.976C177.05 55.128 176.57 56.016 175.61 56.64C174.698 57.216 173.378 57.456 171.65 57.36L169.706 57.216C161.642 56.64 157.61 52.32 157.61 44.256V28.56H154.01C152.714 28.56 151.706 28.272 150.986 27.696C150.314 27.12 149.978 26.28 149.978 25.176C149.978 24.072 150.314 23.232 150.986 22.656C151.706 22.08 152.714 21.792 154.01 21.792H157.61V15.168C157.61 13.872 158.018 12.84 158.834 12.072C159.65 11.304 160.754 10.92 162.146 10.92C163.49 10.92 164.57 11.304 165.386 12.072C166.202 12.84 166.61 13.872 166.61 15.168V21.792H172.73C174.026 21.792 175.01 22.08 175.682 22.656C176.402 23.232 176.762 24.072 176.762 25.176C176.762 26.28 176.402 27.12 175.682 27.696C175.01 28.272 174.026 28.56 172.73 28.56H166.61V44.904C166.61 48.456 168.242 50.352 171.506 50.592L173.45 50.736ZM214.716 35.4C214.716 25.752 210.588 20.928 202.332 20.928C199.788 20.928 197.508 21.432 195.492 22.44C193.524 23.4 191.94 24.816 190.74 26.688V9.912C190.74 8.664 190.332 7.68 189.516 6.96C188.7 6.24 187.62 5.88 186.276 5.88C184.932 5.88 183.828 6.264 182.964 7.032C182.148 7.8 181.74 8.808 181.74 10.056V53.112C181.74 54.456 182.124 55.512 182.892 56.28C183.708 57.048 184.812 57.432 186.204 57.432C187.596 57.432 188.7 57.048 189.516 56.28C190.332 55.512 190.74 54.456 190.74 53.112V37.056C190.74 34.32 191.508 32.136 193.044 30.504C194.628 28.872 196.716 28.056 199.308 28.056C201.516 28.056 203.124 28.656 204.132 29.856C205.188 31.008 205.716 32.856 205.716 35.4V53.112C205.716 54.456 206.124 55.512 206.94 56.28C207.756 57.048 208.86 57.432 210.252 57.432C211.644 57.432 212.724 57.048 213.492 56.28C214.308 55.512 214.716 54.456 214.716 53.112V35.4ZM251.721 47.352C252.537 47.352 253.185 47.664 253.665 48.288C254.193 48.912 254.457 49.752 254.457 50.808C254.457 52.296 253.569 53.544 251.793 54.552C250.161 55.464 248.313 56.208 246.249 56.784C244.185 57.312 242.217 57.576 240.345 57.576C234.681 57.576 230.193 55.944 226.881 52.68C224.775 50.605 223.339 48.045 222.572 45H231.552V44.9632C232.031 46.3567 232.706 47.489 233.577 48.36C235.161 49.896 237.465 50.664 240.489 50.664C242.025 50.664 243.369 50.472 244.521 50.088C245.721 49.704 247.065 49.176 248.553 48.504C249.993 47.736 251.049 47.352 251.721 47.352ZM221.913 39.288C221.913 39.8714 221.931 40.4421 221.966 41H231.552V41.016H252.009C253.833 41.016 254.745 39.984 254.745 37.92C254.745 34.464 254.097 31.464 252.801 28.92C251.505 26.376 249.681 24.408 247.329 23.016C244.977 21.624 242.217 20.928 239.049 20.928C235.737 20.928 232.761 21.696 230.121 23.232C227.529 24.768 225.513 26.928 224.073 29.712C222.633 32.496 221.913 35.688 221.913 39.288ZM239.265 27.264C236.817 27.264 234.849 28.032 233.361 29.568C231.921 31.104 231.057 33.312 230.769 36.192H247.041C246.945 33.264 246.225 31.056 244.881 29.568C243.537 28.032 241.665 27.264 239.265 27.264ZM284.715 21.864C283.995 21.24 283.011 20.976 281.763 21.072L280.755 21.144C278.547 21.288 276.531 21.936 274.707 23.088C272.931 24.24 271.587 25.872 270.675 27.984V25.104C270.675 23.808 270.291 22.824 269.523 22.152C268.755 21.432 267.747 21.072 266.499 21.072C265.251 21.072 264.195 21.432 263.331 22.152C262.515 22.872 262.107 23.904 262.107 25.248V53.112C262.107 54.504 262.515 55.584 263.331 56.352C264.195 57.072 265.275 57.432 266.571 57.432C267.867 57.432 268.947 57.072 269.811 56.352C270.675 55.584 271.107 54.504 271.107 53.112V37.992C271.107 35.544 271.755 33.504 273.051 31.872C274.395 30.24 276.483 29.28 279.315 28.992L281.475 28.776C283.107 28.584 284.235 28.176 284.859 27.552C285.483 26.928 285.795 25.968 285.795 24.672C285.795 23.424 285.435 22.488 284.715 21.864ZM252.673 19.6067C251.502 18.4351 251.502 16.5356 252.673 15.364L257.623 10.4143C258.795 9.24271 260.694 9.24271 261.866 10.4143C263.037 11.5859 263.037 13.4854 261.866 14.6569L256.916 19.6067C255.744 20.7782 253.845 20.7782 252.673 19.6067ZM224.866 19.6785C223.694 20.8501 221.795 20.8501 220.623 19.6785L215.673 14.7287C214.502 13.5572 214.502 11.6577 215.673 10.4861C216.845 9.31452 218.744 9.31452 219.916 10.4861L224.866 15.4358C226.037 16.6074 226.037 18.5069 224.866 19.6785Z" fill="#EA9005"/>
</mask>
<g mask="url(#mask0)">
<rect x="-53" y="-24" width="426" height="106" fill="#EC6E4C"/>
</g>
</svg>
