<svg width="490" height="490" viewBox="0 0 490 490" fill="none" xmlns="http://www.w3.org/2000/svg">
<path d="M259.1 247.5L286 274.4C289.9 269.5 292 264.6 292.2 259.8C292.5 254.9 290.9 250.8 287.4 247.3C283.9 243.8 280.1 242 276.1 242C272 242 266.4 243.8 259.1 247.5V247.5Z" fill="white"/>
<path d="M202.6 235C205.9 238.3 209.5 240.1 213.3 240.2C217.1 240.3 222.4 238.7 229.3 235.4L203.4 209.5C199.7 214 197.8 218.6 197.7 223.1C197.6 227.7 199.3 231.7 202.6 235V235Z" fill="white"/>
<path d="M376.1 126.5C383 133.4 383 144.7 376.1 151.7C369.2 158.6 357.9 158.6 350.9 151.7L338.3 139.1C331.4 132.2 331.4 120.9 338.3 113.9C345.2 107 356.5 107 363.5 113.9L376.1 126.5ZM315.6 259C315.4 270.2 310.9 280.7 302.1 290.5L312.9 301.3L304.1 310.1L293.2 299.2C279.3 310.3 262.6 316.2 243.1 316.7L240.1 293.7C255.1 293.3 267.3 289.7 276.9 283L247.9 254C234.9 261.7 223.7 265.7 214.5 266.1C205.3 266.5 196.4 262.4 187.8 253.8C179.2 245.2 174.9 235.3 174.9 224.3C174.9 213.3 179.2 203.1 187.5 193.7L180 186.2L188.8 177.4L196.4 185C207.3 175.7 220.5 170 236.2 167.7L241 190.4C230.3 191.8 220.8 195.4 212.7 201.4L240.8 229.5L241.2 229.1C254.4 221.3 265.8 217.2 275.3 216.8C284.8 216.5 294 220.6 302.7 229.4C311.5 237.9 315.8 247.8 315.6 259ZM151.7 350.9C158.6 357.8 158.6 369.1 151.7 376.1C144.8 383 133.5 383 126.5 376.1L113.9 363.5C107 356.6 107 345.3 113.9 338.3C120.8 331.4 132.1 331.4 139.1 338.3L151.7 350.9ZM289.1 5.20039L5.2 289.1C-1.7 296 -1.7 307.3 5.2 314.3L175.7 484.8C182.6 491.7 193.9 491.7 200.9 484.8L484.8 200.9C491.7 194 491.7 182.7 484.8 175.7L314.3 5.20039C307.3 -1.69961 296.1 -1.69961 289.1 5.20039V5.20039Z" fill="white"/>
</svg>
