<svg width="22" height="22" viewBox="0 0 22 22" fill="none" xmlns="http://www.w3.org/2000/svg">
<path d="M18.622 8.37059L18.077 7.07559C18.077 7.07559 19.345 4.21459 19.233 4.10459L17.554 2.46559C17.438 2.35259 14.576 3.65859 14.576 3.65859L13.256 3.12559C13.256 3.12559 12.09 0.225586 11.93 0.225586H9.561C9.396 0.225586 8.317 3.13159 8.317 3.13159L6.999 3.66659C6.999 3.66659 4.077 2.42459 3.965 2.53559L2.289 4.17659C2.173 4.28959 3.507 7.09259 3.507 7.09259L2.962 8.38559C2.962 8.38559 0 9.52659 0 9.68059V12.0026C0 12.1646 2.969 13.2216 2.969 13.2216L3.514 14.5126C3.514 14.5126 2.246 17.3716 2.357 17.4816L4.035 19.1246C4.149 19.2356 7.012 17.9296 7.012 17.9296L8.333 18.4646C8.333 18.4646 9.499 21.3626 9.66 21.3626H12.029C12.193 21.3626 13.273 18.4566 13.273 18.4566L14.595 17.9216C14.595 17.9216 17.511 19.1636 17.624 19.0546L19.302 17.4136C19.419 17.2986 18.082 14.4976 18.082 14.4976L18.626 13.2046C18.626 13.2046 21.589 12.0616 21.589 11.9056V9.58559C21.59 9.42459 18.622 8.37059 18.622 8.37059ZM14.256 10.7936C14.256 12.6606 12.703 14.1806 10.795 14.1806C8.889 14.1806 7.334 12.6606 7.334 10.7936C7.334 8.92659 8.889 7.40859 10.795 7.40859C12.704 7.40959 14.256 8.92659 14.256 10.7936Z" fill="white"/>
</svg>
