<svg width="68" height="61" viewBox="0 0 68 61" fill="none" xmlns="http://www.w3.org/2000/svg">
<path d="M65.102 0.991211H2.873C1.287 0.991211 0 2.27721 0 3.86421V47.5522C0 49.1402 1.287 50.4272 2.873 50.4272H14.12V58.6872C14.12 60.9172 15.582 61.6472 17.367 60.3132L30.6 50.4292H65.1C66.685 50.4292 67.971 49.1422 67.971 47.5572V3.86421C67.976 2.27721 66.687 0.991211 65.102 0.991211ZM18.311 29.8122C15.856 29.8122 13.866 27.8222 13.866 25.3672C13.866 22.9112 15.856 20.9222 18.311 20.9222C20.767 20.9222 22.757 22.9112 22.757 25.3672C22.754 27.8222 20.764 29.8122 18.311 29.8122ZM33.988 29.8122C31.534 29.8122 29.544 27.8222 29.544 25.3672C29.544 22.9112 31.534 20.9222 33.988 20.9222C36.443 20.9222 38.434 22.9112 38.434 25.3672C38.432 27.8222 36.443 29.8122 33.988 29.8122ZM49.668 29.8122C47.211 29.8122 45.22 27.8222 45.22 25.3672C45.22 22.9112 47.211 20.9222 49.668 20.9222C52.122 20.9222 54.111 22.9112 54.111 25.3672C54.112 27.8222 52.123 29.8122 49.668 29.8122Z" fill="white"/>
</svg>
