<svg width="403" height="373" viewBox="0 0 403 373" fill="none" xmlns="http://www.w3.org/2000/svg">
<path d="M111.326 320.476H29.57C21.608 320.476 15.15 314.009 15.15 306.046V142.562C15.15 134.6 21.608 128.135 29.57 128.135H111.325C119.293 128.135 125.745 134.599 125.745 142.562V306.045C125.746 314.009 119.294 320.476 111.326 320.476Z" fill="white"/>
<path d="M240.9 319.305H159.15C151.182 319.305 144.733 312.844 144.733 304.887V78.5158C144.733 70.5528 151.182 64.0918 159.15 64.0918H240.9C248.862 64.0918 255.323 70.5528 255.323 78.5158V304.887C255.323 312.844 248.862 319.305 240.9 319.305Z" fill="white"/>
<path d="M372.562 319.305H290.806C282.85 319.305 276.389 312.844 276.389 304.887V14.4259C276.389 6.46986 282.844 0.00585938 290.806 0.00585938H372.562C380.53 0.00585938 386.985 6.46986 386.985 14.4259V304.887C386.984 312.844 380.529 319.305 372.562 319.305Z" fill="white"/>
<path d="M387.718 372.122H14.417C6.455 372.122 0 365.66 0 357.698C0 349.736 6.455 343.274 14.417 343.274H387.718C395.68 343.274 402.129 349.736 402.129 357.698C402.129 365.66 395.691 372.122 387.718 372.122Z" fill="white"/>
</svg>
